<?xml version="1.0" encoding="utf-8"?>
<!-- Generator: Adobe Illustrator 17.0.0, SVG Export Plug-In . SVG Version: 6.00 Build 0)  -->
<!DOCTYPE svg PUBLIC "-//W3C//DTD SVG 1.1//EN" "http://www.w3.org/Graphics/SVG/1.1/DTD/svg11.dtd">
<svg version="1.1" id="Calque_1" xmlns="http://www.w3.org/2000/svg" xmlns:xlink="http://www.w3.org/1999/xlink" x="0px" y="0px"
	 width="31.12px" height="31.12px" viewBox="0 0 31.12 31.12" enable-background="new 0 0 31.12 31.12" xml:space="preserve">
<g>
	<path d="M29.668,31.119H1.513c-0.829,0-1.5-0.672-1.5-1.5V1.464c0-0.829,0.671-1.5,1.5-1.5h28.155c0.828,0,1.5,0.671,1.5,1.5
		v28.155C31.168,30.447,30.497,31.119,29.668,31.119z M3.013,28.119h25.155V2.964H3.013V28.119z"/>
</g>
<g>
	<g>
		<path d="M13.198,21.148c-0.321,0-0.645-0.103-0.918-0.314c-4.687-3.637-4.687-4.754-4.687-5.292c0-0.537,0-1.655,4.687-5.291
			c0.655-0.507,1.596-0.39,2.104,0.266c0.508,0.654,0.389,1.596-0.265,2.104c-1.339,1.039-2.687,2.242-3.297,2.921
			c0.61,0.679,1.958,1.881,3.297,2.921c0.655,0.508,0.773,1.45,0.266,2.104C14.088,20.949,13.645,21.148,13.198,21.148z"/>
	</g>
	<g>
		<path d="M17.982,21.148c-0.447,0-0.891-0.199-1.186-0.58c-0.508-0.655-0.39-1.597,0.265-2.105c1.339-1.039,2.688-2.241,3.298-2.92
			c-0.61-0.679-1.959-1.882-3.298-2.921c-0.654-0.508-0.772-1.45-0.265-2.104c0.506-0.655,1.45-0.773,2.104-0.266
			c4.687,3.636,4.687,4.754,4.687,5.291c0,0.538,0,1.655-4.688,5.292C18.627,21.045,18.303,21.148,17.982,21.148z"/>
	</g>
</g>
</svg>
