<?xml version="1.0" encoding="utf-8"?>
<!-- Generator: Adobe Illustrator 17.0.0, SVG Export Plug-In . SVG Version: 6.00 Build 0)  -->
<!DOCTYPE svg PUBLIC "-//W3C//DTD SVG 1.1//EN" "http://www.w3.org/Graphics/SVG/1.1/DTD/svg11.dtd">
<svg version="1.1" id="Calque_1" xmlns="http://www.w3.org/2000/svg" xmlns:xlink="http://www.w3.org/1999/xlink" x="0px" y="0px"
	 width="59.407px" height="47.661px" viewBox="0 0 59.407 47.661" enable-background="new 0 0 59.407 47.661" xml:space="preserve">
<g>
	<path d="M57.792,47.631H1.483c-0.829,0-1.5-0.672-1.5-1.5V1.553c0-0.829,0.671-1.5,1.5-1.5h56.31c0.828,0,1.5,0.671,1.5,1.5v44.578
		C59.292,46.959,58.62,47.631,57.792,47.631z M2.983,44.631h53.31V3.053H2.983V44.631z"/>
</g>
<g>
	<path d="M57.792,11.728H1.483c-0.829,0-1.5-0.671-1.5-1.5V1.553c0-0.829,0.671-1.5,1.5-1.5h56.31c0.828,0,1.5,0.671,1.5,1.5v8.675
		C59.292,11.057,58.62,11.728,57.792,11.728z M2.983,8.728h53.31V3.053H2.983V8.728z"/>
</g>
<g>
	<path d="M50.15,37.643H33.726c-0.828,0-1.5-0.672-1.5-1.5V19.719c0-0.829,0.672-1.5,1.5-1.5H50.15c0.828,0,1.5,0.671,1.5,1.5
		v16.424C51.65,36.971,50.978,37.643,50.15,37.643z M35.226,34.643H48.65V21.219H35.226V34.643z"/>
</g>
<g>
	<path d="M26.289,37.642H9.865c-0.829,0-1.5-0.672-1.5-1.5v-9.385c0-0.828,0.671-1.5,1.5-1.5h16.424c0.829,0,1.5,0.672,1.5,1.5
		v9.385C27.789,36.97,27.118,37.642,26.289,37.642z M11.365,34.642h13.424v-6.385H11.365V34.642z"/>
</g>
<g>
	<path d="M26.289,21.219H9.865c-0.829,0-1.5-0.671-1.5-1.5s0.671-1.5,1.5-1.5h16.424c0.829,0,1.5,0.671,1.5,1.5
		S27.118,21.219,26.289,21.219z"/>
</g>
</svg>
