<?xml version="1.0" encoding="utf-8"?>
<!-- Generator: Adobe Illustrator 17.0.0, SVG Export Plug-In . SVG Version: 6.00 Build 0)  -->
<!DOCTYPE svg PUBLIC "-//W3C//DTD SVG 1.1//EN" "http://www.w3.org/Graphics/SVG/1.1/DTD/svg11.dtd">
<svg version="1.1" id="Calque_1" xmlns="http://www.w3.org/2000/svg" xmlns:xlink="http://www.w3.org/1999/xlink" x="0px" y="0px"
	 width="31.12px" height="31.12px" viewBox="0 0 31.12 31.12" enable-background="new 0 0 31.12 31.12" xml:space="preserve">
<g>
	<path d="M29.668,31.137H1.513c-0.829,0-1.5-0.672-1.5-1.5V1.482c0-0.829,0.671-1.5,1.5-1.5h28.155c0.828,0,1.5,0.671,1.5,1.5
		v28.155C31.168,30.465,30.497,31.137,29.668,31.137z M3.013,28.137h25.155V2.982H3.013V28.137z"/>
</g>
<g>
	<path d="M15.678,22.06c-3.584,0-6.5-2.916-6.5-6.5s2.916-6.5,6.5-6.5s6.5,2.916,6.5,6.5S19.262,22.06,15.678,22.06z M15.678,12.06
		c-1.93,0-3.5,1.57-3.5,3.5s1.57,3.5,3.5,3.5s3.5-1.57,3.5-3.5S17.608,12.06,15.678,12.06z"/>
</g>
</svg>
