<?xml version="1.0" encoding="utf-8"?>
<!-- Generator: Adobe Illustrator 17.0.0, SVG Export Plug-In . SVG Version: 6.00 Build 0)  -->
<!DOCTYPE svg PUBLIC "-//W3C//DTD SVG 1.1//EN" "http://www.w3.org/Graphics/SVG/1.1/DTD/svg11.dtd">
<svg version="1.1" id="Calque_1" xmlns="http://www.w3.org/2000/svg" xmlns:xlink="http://www.w3.org/1999/xlink" x="0px" y="0px"
	 width="100px" height="68px" viewBox="0 0 100 68" enable-background="new 0 0 100 68" xml:space="preserve">
<path fill="none" stroke="#000000" stroke-width="3" stroke-miterlimit="10" d="M80.437,22.364
	C79.009,11.021,68.097,2.197,54.841,2.197c-9.06,0-17.021,4.125-21.613,10.355c-0.686-0.038-1.377-0.064-2.076-0.064
	c-15.583,0-28.216,9.599-28.216,21.44s12.633,21.44,28.216,21.44c0.03,0,0.059-0.002,0.089-0.002
	c3.536,6.017,11.047,10.168,19.741,10.168c7.788,0,14.622-3.335,18.505-8.355c2.737,1.572,5.907,2.476,9.29,2.476
	c10.319,0,18.685-8.365,18.685-18.685C97.462,31.212,89.978,23.205,80.437,22.364z"/>
</svg>
