<?xml version="1.0" encoding="utf-8"?>
<!-- Generator: Adobe Illustrator 17.0.0, SVG Export Plug-In . SVG Version: 6.00 Build 0)  -->
<!DOCTYPE svg PUBLIC "-//W3C//DTD SVG 1.1//EN" "http://www.w3.org/Graphics/SVG/1.1/DTD/svg11.dtd">
<svg version="1.1" id="Calque_1" xmlns="http://www.w3.org/2000/svg" xmlns:xlink="http://www.w3.org/1999/xlink" x="0px" y="0px"
	 width="300px" height="300px" viewBox="0 0 300 300" enable-background="new 0 0 300 300" xml:space="preserve">
<circle fill="#EFEFEF" cx="149.991" cy="150.197" r="150"/>
<g>
	<circle fill="#FFFFFF" stroke="#000000" stroke-width="6" stroke-miterlimit="10" cx="135.53" cy="273.727" r="22.419"/>
	<g>
		<polygon points="153.296,230.853 143.76,228.008 136.909,250.976 146.445,253.821 		"/>
	</g>
	<path fill="#FFFFFF" stroke="#000000" stroke-width="6" stroke-miterlimit="10" d="M196.439,217.757
		c-3.928,13.166-17.786,20.66-30.956,16.731l-33.585-10.019c-13.166-3.928-20.66-17.786-16.731-30.956l7.142-23.94
		c3.928-13.166,17.786-20.66,30.956-16.731l33.585,10.019c13.166,3.928,20.66,17.786,16.731,30.956L196.439,217.757z"/>
	<g>
		<path d="M153.335,177.624c-3.61-1.077-7.412,0.978-8.489,4.588c-1.077,3.61,0.978,7.412,4.588,8.489
			c3.61,1.077,7.412-0.978,8.489-4.588S156.945,178.701,153.335,177.624L153.335,177.624z"/>
	</g>
	<g>
		<path d="M175.294,184.175c-3.61-1.077-7.412,0.978-8.489,4.588c-1.077,3.61,0.978,7.412,4.588,8.489
			c3.61,1.077,7.412-0.978,8.489-4.588C180.96,189.054,178.905,185.252,175.294,184.175L175.294,184.175z"/>
	</g>
	<path fill="none" stroke="#000000" stroke-width="6" stroke-linecap="round" stroke-linejoin="round" stroke-miterlimit="10" d="
		M140.31,204.646c0,0,28.2,12.418,33.787,7.412"/>
	<circle cx="135.63" cy="273.643" r="8.419"/>
</g>
<g>
	<path d="M60.262,84.991V71.648h5.882c2.8,0,4.341,1.9,4.341,4.181c0,2.261-1.561,4.161-4.341,4.161h-3.541v5.001H60.262z
		 M68.084,75.829c0-1.28-0.94-2.12-2.261-2.12h-3.221v4.221h3.221C67.144,77.93,68.084,77.09,68.084,75.829z"/>
	<path d="M72.382,84.991V71.648h2.101v13.343H72.382z"/>
	<path d="M76.622,80.15c0-2.801,2.04-5.062,4.9-5.062c2.901,0,4.741,2.201,4.741,5.241v0.521h-7.441c0.16,1.44,1.24,2.66,3.061,2.66
		c0.96,0,2.061-0.38,2.761-1.08l0.96,1.381c-0.98,0.92-2.4,1.42-3.921,1.42C78.762,85.231,76.622,83.211,76.622,80.15z
		 M81.503,76.81c-1.78,0-2.621,1.381-2.701,2.541h5.441C84.184,78.21,83.403,76.81,81.503,76.81z"/>
	<path d="M94.263,84.991v-1.06c-0.72,0.84-1.86,1.3-3.141,1.3c-1.561,0-3.341-1.08-3.341-3.2c0-2.241,1.761-3.161,3.341-3.161
		c1.32,0,2.421,0.42,3.141,1.24v-1.44c0-1.12-0.94-1.8-2.261-1.8c-1.08,0-2.04,0.399-2.86,1.24l-0.88-1.461
		c1.12-1.08,2.521-1.561,4.061-1.561c2.16,0,4.041,0.9,4.041,3.481v6.421H94.263z M94.263,82.791v-1.48c-0.5-0.66-1.4-1-2.301-1
		c-1.18,0-2.08,0.7-2.08,1.74c0,1.061,0.9,1.74,2.08,1.74C92.862,83.791,93.763,83.451,94.263,82.791z"/>
	<path d="M98.261,83.711l0.961-1.5c0.68,0.7,2.021,1.34,3.261,1.34c1.26,0,1.92-0.52,1.92-1.28c0-1.9-5.841-0.54-5.841-4.261
		c0-1.58,1.36-2.921,3.801-2.921c1.64,0,2.88,0.581,3.74,1.341l-0.88,1.48c-0.58-0.641-1.641-1.16-2.86-1.16
		c-1.101,0-1.78,0.52-1.78,1.2c0,1.7,5.841,0.42,5.841,4.261c0,1.721-1.42,3.021-4.021,3.021
		C100.741,85.231,99.262,84.691,98.261,83.711z"/>
	<path d="M107.941,80.15c0-2.801,2.04-5.062,4.9-5.062c2.901,0,4.741,2.201,4.741,5.241v0.521h-7.441
		c0.16,1.44,1.24,2.66,3.061,2.66c0.96,0,2.061-0.38,2.761-1.08l0.96,1.381c-0.98,0.92-2.4,1.42-3.921,1.42
		C110.081,85.231,107.941,83.211,107.941,80.15z M112.822,76.81c-1.78,0-2.621,1.381-2.701,2.541h5.441
		C115.503,78.21,114.723,76.81,112.822,76.81z"/>
	<path d="M120.302,87.652l-0.961-0.78c0.641-0.38,1.321-1.2,1.44-1.881c-0.039,0.021-0.199,0.061-0.34,0.061
		c-0.66,0-1.181-0.54-1.181-1.28s0.601-1.36,1.361-1.36c0.819,0,1.54,0.66,1.54,1.82C122.162,85.611,121.402,86.872,120.302,87.652z
		"/>
	<path d="M59.922,104.15c0-2.801,1.96-5.062,4.641-5.062c2.94,0,4.562,2.321,4.562,5.121v0.28h-8.082
		c0.1,2.101,1.5,3.841,3.781,3.841c1.22,0,2.34-0.46,3.16-1.34l0.54,0.68c-0.96,1-2.181,1.561-3.78,1.561
		C61.922,109.231,59.922,107.131,59.922,104.15z M64.543,99.989c-2.28,0-3.421,2.001-3.501,3.681h7.021
		C68.044,102.03,66.963,99.989,64.543,99.989z"/>
	<path d="M78.184,108.991l-3.201-4.261l-3.221,4.261h-1.24l3.821-4.961l-3.602-4.701h1.24l3.001,3.981l2.98-3.981h1.24l-3.601,4.701
		l3.821,4.961H78.184z"/>
	<path d="M82.422,107.431v5.241h-1.041V99.329h1.041v1.521c0.68-0.98,1.92-1.761,3.36-1.761c2.581,0,4.321,1.961,4.321,5.062
		c0,3.081-1.74,5.081-4.321,5.081C84.422,109.231,83.202,108.531,82.422,107.431z M88.983,104.15c0-2.341-1.221-4.121-3.381-4.121
		c-1.341,0-2.621,0.801-3.181,1.721v4.781c0.56,0.92,1.84,1.76,3.181,1.76C87.763,108.291,88.983,106.491,88.983,104.15z"/>
	<path d="M98.862,108.991v-1.14c-0.86,0.939-1.94,1.38-3.28,1.38c-1.66,0-3.381-1.141-3.381-3.221c0-2.101,1.7-3.2,3.381-3.2
		c1.34,0,2.44,0.439,3.28,1.38v-1.96c0-1.44-1.16-2.221-2.58-2.221c-1.221,0-2.161,0.42-3.041,1.42l-0.58-0.72
		c1-1.08,2.12-1.621,3.721-1.621c1.961,0,3.521,0.94,3.521,3.102v6.801H98.862z M98.862,107.091v-2.12
		c-0.68-0.9-1.76-1.341-2.921-1.341c-1.58,0-2.64,1.021-2.64,2.401c0,1.359,1.06,2.38,2.64,2.38
		C97.103,108.411,98.183,107.972,98.862,107.091z"/>
	<path d="M109.662,108.991v-6.541c0-1.86-0.939-2.421-2.34-2.421c-1.24,0-2.521,0.78-3.141,1.66v7.302h-1.041v-9.662h1.041v1.461
		c0.7-0.841,2.08-1.701,3.48-1.701c1.96,0,3.041,0.961,3.041,3.142v6.761H109.662z"/>
	<path d="M121.062,108.991v-1.54c-0.68,1-1.921,1.78-3.36,1.78c-2.561,0-4.302-1.96-4.302-5.061c0-3.062,1.741-5.082,4.302-5.082
		c1.38,0,2.601,0.7,3.36,1.801v-5.241h1.061v13.343H121.062z M121.062,106.571v-4.781c-0.56-0.94-1.82-1.761-3.181-1.761
		c-2.141,0-3.381,1.801-3.381,4.142c0,2.34,1.24,4.12,3.381,4.12C119.242,108.291,120.503,107.491,121.062,106.571z"/>
	<path d="M130.081,111.812c0.22,0.1,0.601,0.159,0.84,0.159c0.641,0,1.081-0.26,1.48-1.18l0.761-1.721l-4.102-9.742h1.16
		l3.521,8.442l3.48-8.442h1.181l-5.001,11.783c-0.521,1.22-1.341,1.8-2.461,1.8c-0.34,0-0.78-0.06-1.04-0.14L130.081,111.812z"/>
	<path d="M139.62,104.15c0-2.82,1.801-5.062,4.621-5.062c2.86,0,4.661,2.241,4.661,5.062s-1.801,5.081-4.661,5.081
		C141.421,109.231,139.62,106.971,139.62,104.15z M147.782,104.15c0-2.141-1.261-4.121-3.541-4.121c-2.24,0-3.521,1.98-3.521,4.121
		c0,2.16,1.28,4.141,3.521,4.141C146.521,108.291,147.782,106.311,147.782,104.15z"/>
	<path d="M158.102,108.991v-1.42c-0.78,0.88-2.08,1.66-3.48,1.66c-1.961,0-3.041-0.92-3.041-3.101v-6.802h1.04v6.562
		c0,1.881,0.94,2.4,2.341,2.4c1.24,0,2.501-0.74,3.141-1.6v-7.362h1.04v9.662H158.102z"/>
	<path d="M162.38,108.991v-9.662h1.04v1.66c0.82-1.08,1.921-1.86,3.261-1.86v1.141c-0.18-0.04-0.319-0.04-0.52-0.04
		c-0.98,0-2.301,0.88-2.741,1.721v7.041H162.38z"/>
	<path d="M182.182,108.991l-2.701-8.262l-2.721,8.262h-1l-3.141-9.662h1.12l2.561,8.202l2.721-8.202h0.9l2.721,8.202l2.561-8.202
		h1.12l-3.141,9.662H182.182z"/>
	<path d="M187.999,97.009c0-0.44,0.381-0.78,0.801-0.78c0.439,0,0.8,0.34,0.8,0.78s-0.36,0.8-0.8,0.8
		C188.38,97.809,187.999,97.449,187.999,97.009z M188.279,108.991v-9.662h1.04v9.662H188.279z"/>
	<path d="M199.081,108.991v-6.541c0-1.86-0.94-2.421-2.341-2.421c-1.24,0-2.521,0.78-3.141,1.66v7.302h-1.04v-9.662h1.04v1.461
		c0.7-0.841,2.081-1.701,3.481-1.701c1.96,0,3.04,0.961,3.04,3.142v6.761H199.081z"/>
	<path d="M210.481,108.991v-1.54c-0.681,1-1.921,1.78-3.361,1.78c-2.561,0-4.301-1.96-4.301-5.061c0-3.062,1.74-5.082,4.301-5.082
		c1.381,0,2.601,0.7,3.361,1.801v-5.241h1.06v13.343H210.481z M210.481,106.571v-4.781c-0.561-0.94-1.82-1.761-3.181-1.761
		c-2.141,0-3.381,1.801-3.381,4.142c0,2.34,1.24,4.12,3.381,4.12C208.661,108.291,209.921,107.491,210.481,106.571z"/>
	<path d="M214.239,104.15c0-2.82,1.801-5.062,4.621-5.062c2.86,0,4.661,2.241,4.661,5.062s-1.801,5.081-4.661,5.081
		C216.04,109.231,214.239,106.971,214.239,104.15z M222.401,104.15c0-2.141-1.261-4.121-3.541-4.121c-2.24,0-3.521,1.98-3.521,4.121
		c0,2.16,1.28,4.141,3.521,4.141C221.141,108.291,222.401,106.311,222.401,104.15z"/>
	<path d="M234.481,108.991l-2.701-8.262l-2.72,8.262h-1.001l-3.141-9.662h1.12l2.561,8.202l2.721-8.202h0.9l2.721,8.202l2.561-8.202
		h1.12l-3.141,9.662H234.481z"/>
	<path d="M239.319,108.291c0-0.46,0.421-0.86,0.9-0.86c0.48,0,0.881,0.4,0.881,0.86c0,0.48-0.4,0.881-0.881,0.881
		C239.74,109.172,239.319,108.771,239.319,108.291z"/>
	<path d="M243.698,108.291c0-0.46,0.421-0.86,0.9-0.86c0.48,0,0.881,0.4,0.881,0.86c0,0.48-0.4,0.881-0.881,0.881
		C244.119,109.172,243.698,108.771,243.698,108.291z"/>
	<path d="M248.079,108.291c0-0.46,0.421-0.86,0.9-0.86c0.48,0,0.881,0.4,0.881,0.86c0,0.48-0.4,0.881-0.881,0.881
		C248.5,109.172,248.079,108.771,248.079,108.291z"/>
</g>
<line fill="none" stroke="#000000" stroke-width="4" stroke-linecap="round" stroke-linejoin="round" stroke-miterlimit="10" x1="97" y1="166" x2="60" y2="166"/>
<line fill="none" stroke="#000000" stroke-width="4" stroke-linecap="round" stroke-linejoin="round" stroke-miterlimit="10" x1="82" y1="185" x2="45" y2="185"/>
<line fill="none" stroke="#000000" stroke-width="4" stroke-linecap="round" stroke-linejoin="round" stroke-miterlimit="10" x1="90" y1="204" x2="64" y2="204"/>
</svg>
