<?xml version="1.0" encoding="utf-8"?>
<!-- Generator: Adobe Illustrator 17.0.0, SVG Export Plug-In . SVG Version: 6.00 Build 0)  -->
<!DOCTYPE svg PUBLIC "-//W3C//DTD SVG 1.1//EN" "http://www.w3.org/Graphics/SVG/1.1/DTD/svg11.dtd">
<svg version="1.1" id="Calque_1" xmlns="http://www.w3.org/2000/svg" xmlns:xlink="http://www.w3.org/1999/xlink" x="0px" y="0px"
	 width="165.483px" height="151px" viewBox="0 0 165.483 151" enable-background="new 0 0 165.483 151" xml:space="preserve">
<g>
	<circle fill="#FFFFFF" stroke="#000000" stroke-width="6" stroke-miterlimit="10" cx="92.53" cy="125.003" r="22.419"/>
	<g>
		<polygon points="110.296,82.128 100.76,79.284 93.909,102.252 103.445,105.097 		"/>
	</g>
	<path fill="#FFFFFF" stroke="#000000" stroke-width="6" stroke-miterlimit="10" d="M153.439,69.033
		c-3.928,13.166-17.786,20.66-30.956,16.731L88.897,75.745c-13.166-3.928-20.66-17.786-16.731-30.956l7.142-23.94
		c3.928-13.166,17.786-20.66,30.956-16.731l33.585,10.019c13.166,3.928,20.66,17.786,16.731,30.956L153.439,69.033z"/>
	<g>
		<path d="M110.335,28.9c-3.61-1.077-7.412,0.978-8.489,4.588c-1.077,3.61,0.978,7.412,4.588,8.489
			c3.61,1.077,7.412-0.978,8.489-4.588C116,33.779,113.945,29.977,110.335,28.9L110.335,28.9z"/>
	</g>
	<g>
		<path d="M132.294,35.451c-3.61-1.077-7.412,0.978-8.489,4.588c-1.077,3.61,0.978,7.412,4.588,8.489
			c3.61,1.077,7.412-0.978,8.489-4.588C137.96,40.33,135.905,36.528,132.294,35.451L132.294,35.451z"/>
	</g>
	<path fill="none" stroke="#000000" stroke-width="6" stroke-linecap="round" stroke-linejoin="round" stroke-miterlimit="10" d="
		M97.31,55.922c0,0,28.2,12.418,33.787,7.412"/>
	<circle cx="92.63" cy="124.919" r="8.419"/>
</g>
<line fill="none" stroke="#000000" stroke-width="4" stroke-linecap="round" stroke-linejoin="round" stroke-miterlimit="10" x1="54" y1="17.276" x2="17" y2="17.276"/>
<line fill="none" stroke="#000000" stroke-width="4" stroke-linecap="round" stroke-linejoin="round" stroke-miterlimit="10" x1="39" y1="36.276" x2="2" y2="36.276"/>
<line fill="none" stroke="#000000" stroke-width="4" stroke-linecap="round" stroke-linejoin="round" stroke-miterlimit="10" x1="47" y1="55.276" x2="21" y2="55.276"/>
</svg>
